<svg width="10" height="13" viewBox="0 0 10 13" fill="none" xmlns="http://www.w3.org/2000/svg">
<path d="M4.06913 0.147999C5.20913 0.147999 6.16313 0.255999 6.93113 0.471999C7.71113 0.676 8.29313 1.018 8.67713 1.498C9.07313 1.966 9.27113 2.602 9.27113 3.406C9.27113 3.886 9.19313 4.324 9.03712 4.72C8.88113 5.116 8.65313 5.44 8.35313 5.692C8.06513 5.944 7.71113 6.106 7.29113 6.178V6.268C7.72313 6.352 8.11313 6.502 8.46113 6.718C8.80913 6.934 9.08513 7.246 9.28913 7.654C9.49313 8.062 9.59513 8.602 9.59513 9.274C9.59513 10.054 9.40313 10.726 9.01913 11.29C8.64713 11.842 8.10713 12.268 7.39913 12.568C6.69113 12.856 5.85113 13 4.87913 13H0.0731251V0.147999H4.06913ZM4.37513 5.242C5.16713 5.242 5.71313 5.116 6.01313 4.864C6.32513 4.612 6.48113 4.246 6.48113 3.766C6.48113 3.274 6.30113 2.92 5.94113 2.704C5.58113 2.488 5.01113 2.38 4.23113 2.38H2.79113V5.242H4.37513ZM2.79113 7.402V10.75H4.57313C5.38913 10.75 5.95913 10.594 6.28313 10.282C6.60713 9.958 6.76913 9.532 6.76913 9.004C6.76913 8.68 6.69713 8.398 6.55313 8.158C6.42113 7.918 6.18713 7.732 5.85113 7.6C5.51513 7.468 5.05913 7.402 4.48313 7.402H2.79113Z" fill="black"/>
</svg>
