<svg width="10" height="14" viewBox="0 0 10 14" fill="none" xmlns="http://www.w3.org/2000/svg">
<path d="M9.93699 0.147999V8.464C9.93699 9.352 9.75699 10.156 9.39699 10.876C9.03699 11.584 8.48499 12.148 7.74099 12.568C6.99699 12.976 6.06099 13.18 4.93299 13.18C3.32499 13.18 2.10699 12.748 1.27899 11.884C0.450992 11.008 0.0369923 9.856 0.0369923 8.428V0.147999H1.65699V8.482C1.65699 9.526 1.93299 10.336 2.48499 10.912C3.04899 11.488 3.89499 11.776 5.02299 11.776C6.18699 11.776 7.02699 11.47 7.54299 10.858C8.07099 10.234 8.33499 9.436 8.33499 8.464V0.147999H9.93699Z" fill="black"/>
<path d="M-1.58301 15.25H11.575V16.15H-1.58301V15.25Z" fill="black"/>
</svg>
